<?xml version="1.0" standalone="no"?>
<!DOCTYPE svg PUBLIC "-//W3C//DTD SVG 1.1//EN" "http://www.w3.org/Graphics/SVG/1.1/DTD/svg11.dtd" >
<!--
2013-9-30: Created.
-->
<svg>
<metadata>
Created by iconfont
</metadata>
<defs>

<font id="iconfont" horiz-adv-x="1024" >
  <font-face
    font-family="iconfont"
    font-weight="500"
    font-stretch="normal"
    units-per-em="1024"
    ascent="896"
    descent="-128"
  />
    <missing-glyph />
    
    <glyph glyph-name="x" unicode="x" horiz-adv-x="1001"
d="M281 543q-27 -1 -53 -1h-83q-18 0 -36.5 -6t-32.5 -18.5t-23 -32t-9 -45.5v-76h912v41q0 16 -0.5 30t-0.5 18q0 13 -5 29t-17 29.5t-31.5 22.5t-49.5 9h-133v-97h-438v97zM955 310v-52q0 -23 0.5 -52t0.5 -58t-10.5 -47.5t-26 -30t-33 -16t-31.5 -4.5q-14 -1 -29.5 -0.5
t-29.5 0.5h-32l-45 128h-439l-44 -128h-29h-34q-20 0 -45 1q-25 0 -41 9.5t-25.5 23t-13.5 29.5t-4 30v167h911zM163 247q-12 0 -21 -8.5t-9 -21.5t9 -21.5t21 -8.5q13 0 22 8.5t9 21.5t-9 21.5t-22 8.5zM316 123q-8 -26 -14 -48q-5 -19 -10.5 -37t-7.5 -25t-3 -15t1 -14.5
t9.5 -10.5t21.5 -4h37h67h81h80h64h36q23 0 34 12t2 38q-5 13 -9.5 30.5t-9.5 34.5q-5 19 -11 39h-368zM336 498v228q0 11 2.5 23t10 21.5t20.5 15.5t34 6h188q31 0 51.5 -14.5t20.5 -52.5v-227h-327z" />
    

    
    <glyph glyph-name="chanpinguanli" unicode="&#58881;" d="M960.443164 611.555556H64.443164A66.446222 66.446222 0 0 1 0.443164 543.288889v-204.8A61.041778 61.041778 0 0 1 57.332053 270.222222h903.111111A56.888889 56.888889 0 0 1 1024.443164 327.111111V543.288889A66.446222 66.446222 0 0 1 960.443164 611.555556z m-312.888888-227.555556h-213.333334C336.372053 384 341.776498 425.301333 341.776498 440.888889s21.219556 57.230222 92.444444 57.230222h213.333334C725.833387 498.119111 739.99872 456.760889 739.99872 440.888889a80.839111 80.839111 0 0 0-92.444444-57.173333z m312.888888-170.666667H57.332053a61.041778 61.041778 0 0 1-56.888889-68.266666v-204.8A66.446222 66.446222 0 0 1 64.500053-128h896A66.446222 66.446222 0 0 1 1024.443164-59.733333v204.8a66.446222 66.446222 0 0 1-64 68.266666z m-312.888888-227.555555h-213.333334C340.240498-14.222222 341.776498 27.079111 341.776498 42.666667s0.455111 57.230222 92.444444 57.230222h213.333334c93.923556 0 92.444444-41.358222 92.444444-57.230222s-0.512-57.173333-92.444444-57.173334zM967.554276 668.444444c-2.446222 6.826667 0-14.677333-4.152889-7.509333L854.345387 854.869333A83.228444 83.228444 0 0 1 789.492053 896H235.337387A83.228444 83.228444 0 0 1 170.540942 854.869333L57.332053 668.444444c-4.039111-7.168 2.389333 6.826667 0 0h910.222223z"  horiz-adv-x="1024" />

    
    <glyph glyph-name="dingdanguanli" unicode="&#58882;" d="M682.666667 725.333333a113.777778 113.777778 0 0 0 113.777777-113.777777v-512h113.777778a56.888889 56.888889 0 0 1 56.888889 56.888888V839.111111a56.888889 56.888889 0 0 1-56.888889 56.888889H341.333333a56.888889 56.888889 0 0 1-56.888889-56.888889v-113.777778h398.222223z m0-56.888889H113.777778a56.888889 56.888889 0 0 1-56.888889-56.888888v-682.666667a56.888889 56.888889 0 0 1 56.888889-56.888889h568.888889a56.888889 56.888889 0 0 1 56.888889 56.888889V611.555556a56.888889 56.888889 0 0 1-56.888889 56.888888zM426.666667 99.555556h-227.555556a28.444444 28.444444 0 0 0 0 56.888888h227.555556a28.444444 28.444444 0 0 0 0-56.888888z m170.666666 170.666666h-398.222222a28.444444 28.444444 0 0 0 0 56.888889h398.222222a28.444444 28.444444 0 0 0 0-56.888889z m0 170.666667h-398.222222a28.444444 28.444444 0 0 0 0 56.888889h398.222222a28.444444 28.444444 0 0 0 0-56.888889z"  horiz-adv-x="1024" />

    
    <glyph glyph-name="gongsiguanli" unicode="&#58886;" d="M568.888889 896H56.888889a56.888889 56.888889 0 0 1-56.888889-56.888889v-910.222222a56.888889 56.888889 0 0 1 56.888889-56.888889h512a56.888889 56.888889 0 0 1 56.888889 56.888889V839.111111a56.888889 56.888889 0 0 1-56.888889 56.888889zM284.444444 156.444444H113.777778v113.777778h170.666666v-113.777778z m0 227.555556H113.777778V497.777778h170.666666v-113.777778z m0 227.555556H113.777778V725.333333h170.666666v-113.777777z m227.555556-455.111112H341.333333v113.777778h170.666667v-113.777778z m0 227.555556H341.333333V497.777778h170.666667v-113.777778z m0 227.555556H341.333333V725.333333h170.666667v-113.777777z m512-284.444445h-341.333333a56.888889 56.888889 0 0 0 56.888889 56.888889h227.555555a56.888889 56.888889 0 0 0 56.888889-56.888889z m-341.333333-56.888889v-341.333333a56.888889 56.888889 0 0 1 56.888889-56.888889h56.888888v170.666667a56.888889 56.888889 0 0 0 113.777778 0v-170.666667h56.888889a56.888889 56.888889 0 0 1 56.888889 56.888889v341.333333h-341.333333z"  horiz-adv-x="1024" />

    
    <glyph glyph-name="kehuguanli" unicode="&#58887;" d="M597.333333 668.444444a227.555556 227.555556 0 1 0-227.555555 227.555556 227.555556 227.555556 0 0 0 227.555555-227.555556zM398.222222 213.333333a113.777778 113.777778 0 0 0 113.777778 113.777778h148.992A369.777778 369.777778 0 0 1 0 99.555556h398.222222v113.777777z m568.888889 56.888889H512a56.888889 56.888889 0 0 1-56.888889-56.888889v-284.444444a56.888889 56.888889 0 0 1 56.888889-56.888889h455.111111a56.888889 56.888889 0 0 1 56.888889 56.888889v284.444444a56.888889 56.888889 0 0 1-56.888889 56.888889z m-85.333333-284.444444h-284.444445a28.444444 28.444444 0 0 0 0 56.888889h284.444445a28.444444 28.444444 0 1 0 0-56.888889z m0 113.777778h-284.444445a28.444444 28.444444 0 1 0 0 56.888888h284.444445a28.444444 28.444444 0 1 0 0-56.888888z"  horiz-adv-x="1024" />

    
    <glyph glyph-name="shouyedingzhi" unicode="&#58888;" d="M420.286349 114.975929a60.455459 60.455459 0 0 0 60.03227 60.455459h120.064541a60.455459 60.455459 0 0 0 60.032271-60.455459v-242.910033h229.730743a67.347381 67.347381 0 0 1 70.188787 63.478232V350.631307l94.370971-1.632297a21.945331 21.945331 0 0 1 18.983014 9.85424 45.039317 45.039317 0 0 1-8.342853 57.553596L565.621271 886.629404a41.351534 41.351534 0 0 1-54.71219 0L15.718419 417.615956a45.039317 45.039317 0 0 1-8.342853-57.553597 21.945331 21.945331 0 0 1 18.983014-9.85424l94.008238-0.423188v-414.240803a67.286926 67.286926 0 0 1 70.128332-63.478232h229.730743v242.970489z"  horiz-adv-x="1080" />

    
    <glyph glyph-name="xiaoshouguanli" unicode="&#58884;" d="M540.011791 820.621695l-146.773251-85.333286a56.888857 56.888857 0 0 1-20.707545-77.710179l395.548225-689.777394a56.319969 56.319969 0 0 1 77.198179-20.821322l146.830141 85.333286a56.888857 56.888857 0 0 1 20.650655 77.710179L617.209971 799.743485a56.319969 56.319969 0 0 1-77.19818 20.87821zM862.17339 88.177658a84.479953 84.479953 0 0 0-115.768824 31.231982 85.731508 85.731508 0 0 0 31.004427 116.622158 84.423064 84.423064 0 0 0 115.768824-31.288872 85.333286 85.333286 0 0 0-31.004427-116.565268z m-177.095013 422.570432l-97.848834-56.888858a28.444429 28.444429 0 0 0-38.627534 10.410661 28.444429 28.444429 0 0 0 10.353772 38.85509l97.905723 56.888857a28.103095 28.103095 0 0 0 38.570645-10.410661 28.444429 28.444429 0 0 0-10.353772-38.855089z m-70.599072 123.164376l-97.905723-56.888858a28.103095 28.103095 0 0 0-38.570645 10.410661 28.444429 28.444429 0 0 0 10.296883 38.85509l97.905723 56.888857a28.103095 28.103095 0 0 0 38.570646-10.410661 28.444429 28.444429 0 0 0-10.296884-38.855089zM286.17371 895.999431H60.097391a56.888857 56.888857 0 0 1-56.490635-56.888857v-910.221717a56.888857 56.888857 0 0 1 56.490635-56.888857h226.076319A59.335078 59.335078 0 0 1 345.679455-71.111143V839.110574a59.335078 59.335078 0 0 1-59.505745 56.888857zM173.135551-14.222285a113.777715 113.777715 0 1 0 113.038159 113.777714 113.379493 113.379493 0 0 0-113.038159-113.777714z m84.764397 511.999715h-169.528795a28.444429 28.444429 0 0 0 0 56.888857h169.528795a28.444429 28.444429 0 0 0 0-56.888857z m1.763555 170.666572h-169.528795a28.444429 28.444429 0 0 0 0 56.888857h169.528795a28.444429 28.444429 0 0 0 0-56.888857z"  horiz-adv-x="1024" />

    
    <glyph glyph-name="shujutongji" unicode="&#58883;" d="M227.555556-128H56.888889a56.888889 56.888889 0 0 0-56.888889 56.888889V668.444444a56.888889 56.888889 0 0 0 56.888889 56.888889h170.666667a56.888889 56.888889 0 0 0 56.888888-56.888889v-739.555555a56.888889 56.888889 0 0 0-56.888888-56.888889z m739.555555 0h-170.666667a56.888889 56.888889 0 0 0-56.888888 56.888889V839.111111a56.888889 56.888889 0 0 0 56.888888 56.888889h170.666667a56.888889 56.888889 0 0 0 56.888889-56.888889v-910.222222a56.888889 56.888889 0 0 0-56.888889-56.888889z m-341.333333 0H398.222222a56.888889 56.888889 0 0 0-56.888889 56.888889V384a56.888889 56.888889 0 0 0 56.888889 56.888889h227.555556a56.888889 56.888889 0 0 0 56.888889-56.888889v-455.111111a56.888889 56.888889 0 0 0-56.888889-56.888889z"  horiz-adv-x="1024" />

    
    <glyph glyph-name="yonghufankui" unicode="&#58893;" d="M215.427931 92.592692l1.205111-27.086303c-2.352836-38.735709-14.461332-141.170141-99.679892-170.609281 25.594261 8.83748 205.84443-21.921542 322.453261 118.387806M516.476126 896C231.209146 896 0 706.62542 0 458.085631a435.791078 435.791078 0 0 1 220.994396-369.050885 553.260704 553.260704 0 0 1 185.242771-70.585071A588.725398 588.725398 0 0 1 516.476126 8.177539c285.209594 0 516.476126 201.425689 516.476127 449.908092S801.685721 896 516.476126 896zM258.238063 429.966375A84.415154 84.415154 0 1 0 344.317418 514.381529a85.218561 85.218561 0 0 0-86.079355-84.357768z m286.931182 0A84.415154 84.415154 0 1 0 631.248599 514.381529a85.218561 85.218561 0 0 0-86.079354-84.357768z m286.931181 0A84.415154 84.415154 0 1 0 918.17978 514.381529a85.218561 85.218561 0 0 0-86.079354-84.357768z"  horiz-adv-x="1032" />

    
    <glyph glyph-name="tuiguangleibie" unicode="&#58885;" d="M568.787302 269.541743H228.043078a215.804675 215.804675 0 0 0-227.162816 211.091047 243.802493 243.802493 0 0 0 227.162816 243.234586h340.744224v-454.325633z m113.581409 0.454326h-56.790704v453.189819h56.790704v-453.189819z m245.790167-127.154386L739.159415 269.541743v454.325633L928.158878 867.150322C976.203813 902.530931 1023.112935 906.903815 1023.112935 870.614555v-731.293896c0-36.516423-46.909122-31.916376-94.954057 3.521024zM370.019838-127.993185A140.670574 140.670574 0 0 0 228.043078 10.462551V358.135242a140.670574 140.670574 0 0 0 141.97676 138.569318A140.670574 140.670574 0 0 0 511.996598 358.248823v-347.843062a140.670574 140.670574 0 0 0-141.97676-138.398946z"  horiz-adv-x="1024" />

    
    <glyph glyph-name="shijian_xuanze" unicode="&#58891;" d="M928-128h-832A96 96 0 0 0 0-32v704A96 96 0 0 0 96 768h128a32 32 0 0 0 0-64h-128a32 32 0 0 1-32-32v-704a32 32 0 0 1 32-32h832a32 32 0 0 1 32 32v704a32 32 0 0 1-32 32h-128a32 32 0 0 0 0 64h128A96 96 0 0 0 1024 672v-704a96 96 0 0 0-96-96z m-384 832h-64a32 32 0 0 0 0 64h64a32 32 0 0 0 0-64z m-192-64a32 32 0 0 0-32 32v192a32 32 0 0 0 64 0v-192a32 32 0 0 0-32-32z m320 0a32 32 0 0 0-32 32v192a32 32 0 0 0 64 0v-192a32 32 0 0 0-32-32z m128-192h-576a32 32 0 0 0 0 64h576a32 32 0 0 0 0-64z m0-192h-576a32 32 0 0 0 0 64h576a32 32 0 0 0 0-64z m-320-192h-256a32 32 0 0 0 0 64h256a32 32 0 0 0 0-64z"  horiz-adv-x="1024" />

    
    <glyph glyph-name="mima" unicode="&#58904;" d="M804.571429 439.491048a73.630476 73.630476 0 0 0 73.142857-73.923048v-345.088a73.679238 73.679238 0 0 0-73.142857-73.97181H219.428571a73.679238 73.679238 0 0 0-73.142857 73.97181v345.088A73.630476 73.630476 0 0 0 219.428571 439.491048h585.142858m0 73.971809H219.428571a147.553524 147.553524 0 0 1-146.285714-147.894857v-345.088a147.553524 147.553524 0 0 1 146.285714-147.894857h585.142858a147.553524 147.553524 0 0 1 146.285714 147.894857v345.088a147.553524 147.553524 0 0 1-146.285714 147.894857z m-12.190477-49.298286h-73.142857V612.059429a207.238095 207.238095 0 1 1-414.47619 0v-147.894858h-73.142857V612.059429a280.380952 280.380952 0 1 0 560.761904 0v-147.894858z m-207.238095-295.789714A73.142857 73.142857 0 1 0 512 242.297905a73.581714 73.581714 0 0 0 73.142857-73.776762z m-24.380952 24.380953H463.238095v49.298285A49.200762 49.200762 0 0 0 512 291.352381a49.200762 49.200762 0 0 0 48.761905-49.298286v-49.298285z"  horiz-adv-x="1024" />

    
    <glyph glyph-name="touxiang" unicode="&#58905;" d="M514.577473 895.16821a305.398197 305.398197 0 0 1-308.308696-302.487697 297.279435 297.279435 0 0 1 64.899032-185.659228 499.584677 499.584677 0 0 0 45.546763 23.743548 38.959844 38.959844 0 0 0 16.237523 3.523236 38.551352 38.551352 0 0 0 34.925994-21.854277 37.530124 37.530124 0 0 0-18.68847-50.244411q-10.722893-5.106139-21.139417-10.212279a313.108467 313.108467 0 0 1 370.858903-1.633964q-11.795182 6.280551-23.998855 11.897304a37.530124 37.530124 0 0 0-18.637409 50.295473 38.244984 38.244984 0 0 0 4.238096 6.94435 230.7975 230.7975 0 0 0-145.933464-51.572008 224.976501 224.976501 0 1 0 229.31672 224.670133 222.37237 222.37237 0 0 0-72.047627-163.39646 38.959844 38.959844 0 0 0 19.301207 5.106139 39.674703 39.674703 0 0 0 16.339646-3.574298 500.40166 500.40166 0 0 0 48.865754-25.530696 297.84111 297.84111 0 0 1 66.379812 187.803806 305.449258 305.449258 0 0 1-308.359757 302.487697m241.7757-490.189381a307.032161 307.032161 0 0 0-57.444068-54.686752 493.712617 493.712617 0 0 0 246.218041-439.740724 38.551352 38.551352 0 0 1 77.102704 0 572.347164 572.347164 0 0 1-265.876677 494.427476m-84.506607 24.254162a37.836493 37.836493 0 0 1-11.33563-9.803787 229.265658 229.265658 0 0 1 11.33563 9.803787m19.301207 5.10614a38.959844 38.959844 0 0 1-19.301207-5.10614 229.265658 229.265658 0 0 0-11.33563-9.803787 38.244984 38.244984 0 0 1-4.238095-6.94435 37.530124 37.530124 0 0 1 18.637409-50.295473q12.203673-5.565692 23.998855-11.897304a307.032161 307.032161 0 0 1 57.444068 54.686752 500.40166 500.40166 0 0 1-48.865754 25.530697 39.674703 39.674703 0 0 1-16.339646 3.574298m-419.979965-27.215723A571.887611 571.887611 0 0 1 1.461527-89.397586a38.551352 38.551352 0 0 1 77.051643 0 493.09988 493.09988 0 0 0 249.332786 441.374688 304.989705 304.989705 0 0 0-56.882393 55.197367m61.784287 27.266784a38.959844 38.959844 0 0 1-16.237523-3.523236 499.584677 499.584677 0 0 1-45.546764-23.743548 304.989705 304.989705 0 0 1 56.882393-55.197367q10.212279 5.412508 21.139417 10.212279a37.530124 37.530124 0 0 1 18.68847 50.244411 38.551352 38.551352 0 0 1-34.925993 21.854277"  horiz-adv-x="1024" />

    
    <glyph glyph-name="logo" unicode="&#58906;" d="M559.753648 723.731319a275.312993 275.312993 0 0 0 103.46475-230.607109 11.39085 11.39085 0 0 0-22.423336-1.855812 193.042903 193.042903 0 1 1-235.662598-236.161748 11.352453 11.352453 0 0 0-2.07339-22.308147A275.709753 275.709753 0 1 0 559.753648 723.731319z m298.030698-717.175565l-231.656602 231.656603a357.698272 357.698272 0 0 0-49.390212-36.604303l233.602006-233.589208a514.380048 514.380048 0 0 1 47.444808 38.536908zM642.561284 760.476408a358.581383 358.581383 0 0 0 75.179607-396.644739L954.734554 126.786811A512.037884 512.037884 0 0 1 415.6658 886.850844a11.378051 11.378051 0 0 1 1.433456-22.500127A357.083935 357.083935 0 0 0 642.561284 760.476408z m-110.363253-582.1748A358.491792 358.491792 0 0 0 31.653386 478.904847a11.378051 11.378051 0 0 1-22.500128 1.433455A512.050683 512.050683 0 0 1 769.268487-58.717654z m162.249213 140.939365a356.751168 356.751168 0 0 0-34.55651-46.945659l231.746193-231.746193a512.690618 512.690618 0 0 1 36.348329 45.102644z m-240.308529 54.394506a226.690704 226.690704 0 0 1-84.471469-16.267157 227.752997 227.752997 0 0 1 0 169.058125 227.586614 227.586614 0 0 1 169.058125 0 227.752997 227.752997 0 0 1 0-169.058125 226.805893 226.805893 0 0 1-84.612254 16.267157z"  horiz-adv-x="1024" />

    
    <glyph glyph-name="xingzhuang" unicode="&#58907;" d="M963.764706 835.764706a60.235294 60.235294 0 0 0 60.235294-60.235294v-481.882353a60.235294 60.235294 0 0 0-60.235294-60.235294H120.470588a60.235294 60.235294 0 0 0-60.235294 60.235294V775.529412a60.235294 60.235294 0 0 0 60.235294 60.235294h843.294118m0 60.235294H120.470588a120.832 120.832 0 0 1-120.470588-120.470588v-481.882353a120.832 120.832 0 0 1 120.470588-120.470588h843.294118a120.832 120.832 0 0 1 120.470588 120.470588V775.529412a120.832 120.832 0 0 1-120.470588 120.470588z m0-602.352941H120.470588V775.529412h843.294118v-481.882353z m-301.176471-421.647059H361.411765v240.941176h301.17647v-240.941176z m150.588236 0h-602.352942a30.117647 30.117647 0 0 0-30.117647 30.117647 30.117647 30.117647 0 0 0 30.117647 30.117647h602.352942a30.117647 30.117647 0 0 0 30.117647-30.117647 30.117647 30.117647 0 0 0-30.117647-30.117647z"  horiz-adv-x="1084" />

    
    <glyph glyph-name="tuiguangguanli" unicode="&#58908;" d="M0-14.222222a114.119111 114.119111 0 0 1 113.777778-113.777778h796.444444a114.119111 114.119111 0 0 1 113.777778 113.777778V554.666667H0v-568.888889z m568.888889 398.222222h284.444444v-284.444444h-284.444444V384zM199.111111 384h227.555556a28.444444 28.444444 0 0 0 0-56.888889h-227.555556a28.444444 28.444444 0 0 0 0 56.888889z m0-113.777778h227.555556a28.444444 28.444444 0 0 0 0-56.888889h-227.555556a28.444444 28.444444 0 0 0 0 56.888889z m0-113.777778h227.555556a28.444444 28.444444 0 0 0 0-56.888888h-227.555556a28.444444 28.444444 0 0 0 0 56.888888zM910.222222 896H113.777778a114.119111 114.119111 0 0 1-113.777778-113.777778v-170.666666h1024V782.222222a114.119111 114.119111 0 0 1-113.777778 113.777778zM284.444444 668.444444H170.666667V839.111111h113.777777v-170.666667z m369.777778 56.888889h-284.444444a28.444444 28.444444 0 0 0 0 56.888889h284.444444a28.444444 28.444444 0 0 0 0-56.888889z"  horiz-adv-x="1024" />

    
    <glyph glyph-name="xingzhuang1" unicode="&#58909;" d="M910.222222 327.11111100000005a113.777778 113.777778 0 1 0-113.777778 113.777778 113.777778 113.777778 0 0 0 113.777778-113.777778z m56.888889-455.111111h-341.333333a56.888889 56.888889 0 0 0-56.888889 56.888889v113.777778a171.178667 171.178667 0 0 0 170.666667 170.666666h113.777777a171.178667 171.178667 0 0 0 170.666667-170.666666v-113.777778a56.888889 56.888889 0 0 0-56.888889-56.888889z m-264.988444 518.712889a112.753778 112.753778 0 0 0 30.72 30.72 112.753778 112.753778 0 0 1-30.72-30.72z m157.923555 30.72a112.753778 112.753778 0 0 0 30.72-30.72 112.753778 112.753778 0 0 1-30.72 30.72z m-214.584889-172.202667A168.561778 168.561778 0 0 0 625.777778 327.11111100000005a169.927111 169.927111 0 0 0 284.444444 126.293333V782.222222a114.119111 114.119111 0 0 1-113.777778 113.777778H113.777778a114.119111 114.119111 0 0 1-113.777778-113.777778v-739.555555a114.119111 114.119111 0 0 1 113.777778-113.777778h398.222222v113.777778a227.555556 227.555556 0 0 0 133.461333 206.563555zM199.111111 668.444444h512a28.444444 28.444444 0 0 0 0-56.888888h-512a28.444444 28.444444 0 0 0 0 56.888888z m0-227.555555h341.333333a28.444444 28.444444 0 0 0 0-56.888889h-341.333333a28.444444 28.444444 0 0 0 0 56.888889z m284.444445-284.444445h-284.444445a28.444444 28.444444 0 0 0 0 56.888889h284.444445a28.444444 28.444444 0 0 0 0-56.888889z"  horiz-adv-x="1024" />

    
    <glyph glyph-name="zhankai" unicode="&#58910;" d="M0.007775 782.155462A114.626213 114.626213 0 0 0 32.674787 862.510479a109.667827 109.667827 0 0 0 157.355831 0L924.30922 112.627546a36.896224 36.896224 0 0 1 52.500555 0L1711.234212 862.510479a109.667827 109.667827 0 0 0 157.355831 0 115.355387 115.355387 0 0 0 0-160.418364L1134.165607-47.644983a256.086043 256.086043 0 0 0-367.212219 0L32.674787 702.092115A114.626213 114.626213 0 0 0 0.007775 782.155462z"  horiz-adv-x="1907" />

    
    <glyph glyph-name="shouqi" unicode="&#58911;" d="M302.341907-127.999207a58.855635 58.855635 0 0 0-42.119059 17.529778 60.124759 60.124759 0 0 0 0 84.793361l393.190541 395.570149a19.988706 19.988706 0 0 1 0 28.238014L260.222848 793.781564a60.045439 60.045439 0 0 0 0 84.71404 59.331556 59.331556 0 0 0 84.238119 0l393.269861-395.570149a140.714146 140.714146 0 0 0 0-197.824735l-393.269861-395.570149a59.093596 59.093596 0 0 0-42.11906-17.529778z"  horiz-adv-x="1024" />

    
    <glyph glyph-name="touxiang1" unicode="&#58960;" d="M512-128a512 512 0 1 0 512 512 512 512 0 0 0-512-512z m142.222222 511.175111a201.045333 201.045333 0 0 1 56.035556 139.377778 205.226667 205.226667 0 0 1-410.453334 0 200.988444 200.988444 0 0 1 56.035556-139.377778A382.976 382.976 0 0 1 164.124444 42.666667a28.728889 28.728889 0 0 1 57.457778 0 323.413333 323.413333 0 0 0 177.208889 298.268444 32.995556 32.995556 0 0 1 6.542222 4.152889 207.246222 207.246222 0 0 1 199.395556 0 28.444444 28.444444 0 0 1 6.826667-4.238222A323.271111 323.271111 0 0 0 788.48 42.666667a28.728889 28.728889 0 0 1 57.457778 0A383.032889 383.032889 0 0 1 654.222222 383.175111z m-149.048889-6.741333a146.005333 146.005333 0 1 0 147.626667 146.005333 147.086222 147.086222 0 0 0-147.626667-146.005333z"  horiz-adv-x="1024" />

    
    <glyph glyph-name="tuichu" unicode="&#58964;" d="M511.557358-127.973556A464.89969 464.89969 0 0 0 237.735706 715.755405a43.163164 43.163164 0 0 0 59.711887-9.639205 42.182183 42.182183 0 0 0-9.80981-59.072117 383.86213 383.86213 0 1 1 447.839151 0 42.182183 42.182183 0 0 0-9.80981 59.072117 43.077861 43.077861 0 0 0 59.711887 9.639205A464.89969 464.89969 0 0 0 511.557358-127.973556z m0 600.445673a42.651348 42.651348 0 0 0-42.651347 42.310137V853.348652a42.651348 42.651348 0 0 0 85.302695 0V514.782254a42.651348 42.651348 0 0 0-42.651348-42.310137z"  horiz-adv-x="1024" />

    


  </font>
</defs>
</svg>
